<?xml version="1.0" encoding="iso-8859-1"?>
<!-- Generator: Adobe Illustrator 19.0.0, SVG Export Plug-In . SVG Version: 6.00 Build 0)  -->
<svg version="1.1" id="Capa_1" xmlns="http://www.w3.org/2000/svg" xmlns:xlink="http://www.w3.org/1999/xlink" x="0px" y="0px"
	 viewBox="0 0 511.999 511.999" style="enable-background:new 0 0 511.999 511.999;" xml:space="preserve">
<circle style="fill:#27D1CF;" cx="255.999" cy="255.999" r="255.999"/>
<path style="fill:#D6C1A8;" d="M499.339,153.412v182.313c-4.232,12.915-9.456,25.381-15.6,37.303
	c-3.939,7.659-8.255,15.088-12.936,22.267c-45.631,70.248-124.792,116.704-214.799,116.704c-90.018,0-169.179-46.456-214.81-116.704
	c-4.671-7.178-8.986-14.608-12.936-22.267c-6.134-11.933-11.368-24.409-15.6-37.334V153.412c0-7.69,6.238-13.928,13.928-13.928
	H485.41C493.101,139.483,499.339,145.721,499.339,153.412z"/>
<path style="fill:#E8D4BB;" d="M403.323,17.126v448.25c-8.767,6.186-17.941,11.828-27.47,16.886
	c-2.978,1.578-5.987,3.103-9.028,4.566c-2.372,1.139-4.765,2.247-7.178,3.323c-9.435,4.18-19.163,7.805-29.142,10.836
	c-4.545,1.379-9.143,2.644-13.793,3.762c-2.988,0.731-5.998,1.411-9.028,2.027c-5.799,1.191-11.672,2.184-17.607,2.978
	c-2.999,0.397-6.008,0.742-9.028,1.034c-8.244,0.805-16.593,1.212-25.046,1.212c-8.453,0-16.812-0.408-25.057-1.212
	c-3.03-0.293-6.039-0.637-9.028-1.045c-5.935-0.784-11.807-1.776-17.607-2.967c-3.03-0.616-6.039-1.296-9.028-2.027
	c-4.639-1.128-9.237-2.382-13.772-3.762c-9.989-3.03-19.717-6.656-29.142-10.836c-2.424-1.076-4.817-2.184-7.199-3.333
	c-3.041-1.452-6.05-2.978-9.028-4.556c-9.529-5.068-18.704-10.71-27.47-16.886V17.126C108.673,7.67,116.343,0,125.799,0h260.398
	C395.654,0,403.323,7.67,403.323,17.126z"/>
<g>
	<path style="fill:#FF6954;" d="M174.93,108.704h-15.673v21.345c0,2.52-3.072,3.78-6.143,3.78c-3.072,0-6.144-1.26-6.144-3.78
		V79.955c0-2.6,3.072-3.702,6.144-3.702c3.071,0,6.143,1.102,6.143,3.702v19.296h15.673V79.955c0-2.6,3.072-3.702,6.144-3.702
		c3.071,0,6.143,1.102,6.143,3.702v50.092c0,2.52-3.072,3.78-6.143,3.78c-3.072,0-6.144-1.26-6.144-3.78V108.704z"/>
	<path style="fill:#FF6954;" d="M199.036,115.714V94.841c0-13.547,8.427-18.588,19.297-18.588c10.87,0,19.376,5.041,19.376,18.588
		v20.873c0,13.547-8.507,18.588-19.376,18.588C207.464,134.301,199.036,129.261,199.036,115.714z M225.422,94.841
		c0-5.435-2.678-7.876-7.089-7.876c-4.41,0-7.009,2.441-7.009,7.876v20.873c0,5.435,2.599,7.876,7.009,7.876
		c4.411,0,7.089-2.441,7.089-7.876V94.841z"/>
	<path style="fill:#FF6954;" d="M282.766,76.253c2.599,0,3.701,2.835,3.701,5.435c0,2.993-1.339,5.592-3.701,5.592h-10.869v42.769
		c0,2.52-3.072,3.78-6.143,3.78c-3.072,0-6.144-1.26-6.144-3.78V87.28h-10.869c-2.364,0-3.702-2.599-3.702-5.592
		c0-2.6,1.102-5.435,3.702-5.435C248.741,76.253,282.766,76.253,282.766,76.253z"/>
	<path style="fill:#FF6954;" d="M307.58,100.276h11.815c2.362,0,3.702,2.284,3.702,4.804c0,2.126-1.103,4.647-3.702,4.647H307.58
		v13.389h21.108c2.362,0,3.702,2.52,3.702,5.435c0,2.52-1.102,5.277-3.702,5.277h-28.039c-2.678,0-5.356-1.26-5.356-3.78V80.034
		c0-2.52,2.678-3.78,5.356-3.78h28.039c2.6,0,3.702,2.756,3.702,5.277c0,2.914-1.34,5.435-3.702,5.435H307.58V100.276z"/>
	<path style="fill:#FF6954;" d="M347.043,133.829c-2.678,0-5.356-1.26-5.356-3.78V79.955c0-2.6,3.072-3.702,6.143-3.702
		c3.072,0,6.144,1.102,6.144,3.702v43.162h17.958c2.363,0,3.544,2.678,3.544,5.355c0,2.678-1.182,5.356-3.544,5.356h-24.888V133.829
		z"/>
</g>
<g>
	<polygon style="fill:#F48944;" points="349.8,19.17 356.049,31.833 370.024,33.863 359.911,43.721 362.299,57.639 349.8,51.067 
		337.3,57.639 339.687,43.721 329.575,33.863 343.549,31.833 	"/>
	<polygon style="fill:#F48944;" points="302.899,19.17 309.148,31.833 323.123,33.863 313.011,43.721 315.398,57.639 
		302.899,51.067 290.4,57.639 292.786,43.721 282.675,33.863 296.649,31.833 	"/>
	<polygon style="fill:#F48944;" points="255.998,19.17 262.248,31.833 276.222,33.863 266.11,43.721 268.497,57.639 255.998,51.067 
		243.498,57.639 245.886,43.721 235.773,33.863 249.749,31.833 	"/>
	<polygon style="fill:#F48944;" points="209.097,19.17 215.347,31.833 229.322,33.863 219.21,43.721 221.596,57.639 209.097,51.067 
		196.598,57.639 198.986,43.721 188.873,33.863 202.848,31.833 	"/>
	<polygon style="fill:#F48944;" points="162.197,19.17 168.447,31.833 182.421,33.863 172.309,43.721 174.696,57.639 
		162.197,51.067 149.698,57.639 152.085,43.721 141.973,33.863 155.948,31.833 	"/>
</g>
<path style="fill:#D6C1A8;" d="M136.145,252.947v-83.49c0-4.743,3.845-8.588,8.588-8.588h50.989c4.743,0,8.588,3.845,8.588,8.588
	v83.49c0,4.743-3.845,8.588-8.588,8.588h-50.989C139.989,261.535,136.145,257.69,136.145,252.947z"/>
<g>
	<rect x="145.178" y="169.9" style="fill:#4A5370;" width="50.106" height="52.736"/>
	<rect x="145.178" y="233.472" style="fill:#4A5370;" width="50.106" height="19.033"/>
</g>
<path style="fill:#D6C1A8;" d="M221.916,252.947v-83.49c0-4.743,3.845-8.588,8.588-8.588h50.989c4.743,0,8.588,3.845,8.588,8.588
	v83.49c0,4.743-3.845,8.588-8.588,8.588h-50.989C225.761,261.535,221.916,257.69,221.916,252.947z"/>
<g>
	<rect x="230.943" y="169.9" style="fill:#4A5370;" width="50.106" height="52.736"/>
	<rect x="230.943" y="233.472" style="fill:#4A5370;" width="50.106" height="19.033"/>
</g>
<path style="fill:#D6C1A8;" d="M307.688,252.947v-83.49c0-4.743,3.845-8.588,8.588-8.588h50.989c4.743,0,8.588,3.845,8.588,8.588
	v83.49c0,4.743-3.845,8.588-8.588,8.588h-50.989C311.533,261.535,307.688,257.69,307.688,252.947z"/>
<g>
	<rect x="316.718" y="169.9" style="fill:#4A5370;" width="50.106" height="52.736"/>
	<rect x="316.718" y="233.472" style="fill:#4A5370;" width="50.106" height="19.033"/>
</g>
<path style="fill:#E8D4BB;" d="M415.571,252.947v-83.49c0-4.743,3.845-8.588,8.588-8.588h50.989c4.743,0,8.588,3.845,8.588,8.588
	v83.49c0,4.743-3.845,8.588-8.588,8.588h-50.989C419.415,261.535,415.571,257.69,415.571,252.947z"/>
<g>
	<rect x="424.604" y="169.9" style="fill:#4A5370;" width="50.106" height="52.736"/>
	<rect x="424.604" y="233.472" style="fill:#4A5370;" width="50.106" height="19.033"/>
</g>
<path style="fill:#E8D4BB;" d="M483.739,303.218v69.81c-3.939,7.659-8.255,15.088-12.936,22.267h-46.644
	c-4.744,0-8.589-3.845-8.589-8.589v-83.487c0-4.744,3.845-8.589,8.589-8.589h50.991
	C479.893,294.629,483.739,298.474,483.739,303.218z"/>
<g>
	<rect x="424.604" y="303.657" style="fill:#4A5370;" width="50.106" height="52.736"/>
	<rect x="424.604" y="367.229" style="fill:#4A5370;" width="50.106" height="19.033"/>
</g>
<path style="fill:#E8D4BB;" d="M28.262,252.947v-83.49c0-4.743,3.845-8.588,8.588-8.588h50.989c4.743,0,8.588,3.845,8.588,8.588
	v83.49c0,4.743-3.845,8.588-8.588,8.588h-50.99C32.107,261.535,28.262,257.69,28.262,252.947z"/>
<g>
	<rect x="37.291" y="169.9" style="fill:#4A5370;" width="50.106" height="52.736"/>
	<rect x="37.291" y="233.472" style="fill:#4A5370;" width="50.106" height="19.033"/>
</g>
<path style="fill:#E8D4BB;" d="M96.427,303.218v83.487c0,4.744-3.845,8.589-8.589,8.589H41.194
	c-4.671-7.178-8.986-14.608-12.936-22.267v-69.81c0-4.744,3.845-8.589,8.589-8.589h50.991
	C92.582,294.629,96.427,298.474,96.427,303.218z"/>
<g>
	<rect x="37.291" y="303.657" style="fill:#4A5370;" width="50.106" height="52.736"/>
	<rect x="37.291" y="367.229" style="fill:#4A5370;" width="50.106" height="19.033"/>
</g>
<path style="fill:#D6C1A8;" d="M136.145,386.705v-83.49c0-4.743,3.845-8.588,8.588-8.588h50.989c4.743,0,8.588,3.845,8.588,8.588
	v83.49c0,4.743-3.845,8.588-8.588,8.588h-50.989C139.989,395.293,136.145,391.448,136.145,386.705z"/>
<g>
	<rect x="145.178" y="303.657" style="fill:#4A5370;" width="50.106" height="52.736"/>
	<rect x="145.178" y="367.229" style="fill:#4A5370;" width="50.106" height="19.033"/>
</g>
<path style="fill:#D6C1A8;" d="M221.916,386.705v-83.49c0-4.743,3.845-8.588,8.588-8.588h50.989c4.743,0,8.588,3.845,8.588,8.588
	v83.49c0,4.743-3.845,8.588-8.588,8.588h-50.989C225.761,395.293,221.916,391.448,221.916,386.705z"/>
<g>
	<rect x="230.943" y="303.657" style="fill:#4A5370;" width="50.106" height="52.736"/>
	<rect x="230.943" y="367.229" style="fill:#4A5370;" width="50.106" height="19.033"/>
</g>
<path style="fill:#D6C1A8;" d="M307.688,386.705v-83.49c0-4.743,3.845-8.588,8.588-8.588h50.989c4.743,0,8.588,3.845,8.588,8.588
	v83.49c0,4.743-3.845,8.588-8.588,8.588h-50.989C311.533,395.293,307.688,391.448,307.688,386.705z"/>
<g>
	<rect x="316.718" y="303.657" style="fill:#4A5370;" width="50.106" height="52.736"/>
	<rect x="316.718" y="367.229" style="fill:#4A5370;" width="50.106" height="19.033"/>
</g>
<path style="fill:#D6C1A8;" d="M204.313,436.975v69.799c-3.03-0.616-6.04-1.296-9.028-2.027c-4.639-1.128-9.237-2.382-13.772-3.762
	c-9.989-3.03-19.717-6.656-29.142-10.836c-2.424-1.076-4.817-2.184-7.199-3.333c-3.041-1.452-6.05-2.978-9.028-4.556v-45.286
	c0-4.744,3.845-8.589,8.589-8.589h50.991C200.467,428.386,204.313,432.232,204.313,436.975z"/>
<g>
	<path style="fill:#4A5370;" d="M195.285,437.414v52.736h-42.914c-2.424-1.076-4.817-2.184-7.199-3.333v-49.403H195.285z"/>
	<path style="fill:#4A5370;" d="M195.285,500.986v3.762c-4.639-1.128-9.237-2.382-13.772-3.762H195.285z"/>
</g>
<path style="fill:#D6C1A8;" d="M290.078,436.975v72.777c-2.999,0.397-6.008,0.742-9.028,1.034
	c-8.244,0.805-16.593,1.212-25.046,1.212c-8.453,0-16.812-0.408-25.057-1.212c-3.03-0.293-6.04-0.637-9.028-1.045v-72.767
	c0-4.744,3.845-8.589,8.589-8.589h50.98C286.232,428.386,290.078,432.232,290.078,436.975z"/>
<g>
	<rect x="230.943" y="437.414" style="fill:#4A5370;" width="50.106" height="68.796"/>
	<path style="fill:#4A5370;" d="M281.05,500.986v9.801c-8.244,0.805-16.593,1.212-25.046,1.212c-8.453,0-16.812-0.408-25.057-1.212
		v-9.801H281.05z"/>
</g>
<path style="fill:#D6C1A8;" d="M375.853,436.975v45.286c-2.978,1.578-5.987,3.103-9.028,4.566c-2.372,1.139-4.765,2.247-7.178,3.323
	c-9.435,4.18-19.163,7.805-29.142,10.836c-4.545,1.379-9.143,2.644-13.793,3.762c-2.988,0.731-5.998,1.411-9.028,2.027v-69.799
	c0-4.744,3.845-8.589,8.589-8.589h50.991C372.008,428.386,375.853,432.232,375.853,436.975z"/>
<g>
	<path style="fill:#4A5370;" d="M366.825,437.414v49.413c-2.372,1.139-4.765,2.247-7.178,3.323h-42.935v-52.736H366.825z"/>
	<path style="fill:#4A5370;" d="M330.505,500.986c-4.545,1.379-9.143,2.644-13.793,3.762v-3.762H330.505z"/>
</g>
<g>
</g>
<g>
</g>
<g>
</g>
<g>
</g>
<g>
</g>
<g>
</g>
<g>
</g>
<g>
</g>
<g>
</g>
<g>
</g>
<g>
</g>
<g>
</g>
<g>
</g>
<g>
</g>
<g>
</g>
</svg>
