<?xml version="1.0" encoding="UTF-8"?>
<svg xmlns="http://www.w3.org/2000/svg" viewBox="0 0 128 128" width="512" height="512"><g id="icon"><path d="M125.193,65.813a61.2,61.2,0,0,1-109,38.193A60.985,60.985,0,0,1,2.807,65.813q0-.862.032-1.724v-.011a60.6,60.6,0,0,1,3.04-17.446A61.1,61.1,0,0,1,64,4.615a59.633,59.633,0,0,1,7.135.418A61.2,61.2,0,0,1,125.193,65.813Z" fill="#dbe2eb"/><path d="M125.187,65.811a61.2,61.2,0,0,1-109,38.194q-1.834-2.289-3.437-4.753,1.9,1.66,3.938,3.144a61.206,61.206,0,0,0,95.182-33.545c.355-1.327.668-2.664.93-4.022.334-1.661.595-3.343.773-5.046a58.776,58.776,0,0,0,.386-6.811c0-1.066-.031-2.121-.083-3.176A60.73,60.73,0,0,0,104,19.521,61,61,0,0,1,125.187,65.811Z" fill="#ccd8dd"/><path d="M64,128A62.184,62.184,0,0,1,1.808,65.813q0-.88.031-1.76A62.128,62.128,0,0,1,51.4,4.889,62.441,62.441,0,0,1,64,3.615a60.866,60.866,0,0,1,7.255.424A62.192,62.192,0,0,1,64,128ZM64,5.615A60.093,60.093,0,0,0,6.829,46.945,59.736,59.736,0,0,0,3.838,64.1c-.02.584-.03,1.145-.03,1.709A60.192,60.192,0,1,0,71.015,6.026,58.884,58.884,0,0,0,64,5.615Z" fill="#2f3a5a"/><path d="M125.193,65.813a60.743,60.743,0,0,1-1.16,11.857c-.042-.711-.063-1.421-.1-2.11a118.546,118.546,0,0,0-1.975-13.08c-.512-3.05-1.055-6.2-2.737-8.807s-4.8-4.544-7.814-3.886q1.284,5.955,2.591,11.9c.564,2.6.679,6.111-1.8,7.062-2.309.9-4.649-1.535-5.2-3.949s-.167-5-1.034-7.313c-1.745-4.627-7.47-6.048-12.348-6.821a6.76,6.76,0,0,0-4.252.261c-1.275.689-1.9,2.674-.784,3.593,1.588,1.317,4.127-.961,5.976-.041,1.588.783,1.274,3.3.01,4.534s-3.081,1.744-4.513,2.768c-1.243.888-2.225,2.173-3.646,2.716-2.914,1.129-6.048-1.452-7.333-4.314s-1.557-6.133-3.155-8.828a6.649,6.649,0,0,0-3.636-3.113A3.983,3.983,0,0,0,67.9,49.568c-1.191,1.734-.449,4.085.324,6.038,1.17,2.936,2.34,5.882,3.51,8.817.794,2.006,1.859,4.262,3.938,4.827,1.985.543,3.96-.711,5.882-1.421s4.732-.481,5.244,1.514c.4,1.557-.929,2.978-2.1,4.075a73.79,73.79,0,0,0-8.63,9.6c-1.138,1.514-2.267,3.207-2.256,5.1,0,2.131,1.452,4.158,1.076,6.257a7.524,7.524,0,0,1-2.413,3.657l-10.938,11c-1.62,1.619-3.792,3.385-5.945,2.6-2.068-.763-2.663-3.416-2.517-5.61s.71-4.524-.24-6.509c-.753-1.588-2.309-2.612-3.4-3.991-2.371-3.019-2.183-7.229-2.371-11.063s-1.358-8.263-4.91-9.715c-2.518-1.035-5.412-.157-8.107-.533a17.751,17.751,0,0,1-5.474-2.058c-1.891-.961-3.928-2.069-4.785-4.012-.783-1.765-.4-3.813,0-5.7.94-4.461,1.891-8.963,3.834-13.079A18.417,18.417,0,0,1,35.255,40.7c3.458-1.828,7.992-1.932,11.116.418,1.557,1.17,2.685,2.842,4.241,4,3.51,2.612,8.337,2.142,12.662,1.546a10.166,10.166,0,0,0,4.44-1.316,3.506,3.506,0,0,0,1.525-4.032c-.721-1.661-2.894-2.058-4.7-1.944s-3.771.492-5.328-.428c-3.113-1.859-2.465-7.532-5.871-8.744-2.236-.783-4.44,1-6.519,2.131S41.252,33.3,41,30.951c-.2-1.943,2.152-3.1,4.106-3.27s4.21-.052,5.474-1.535c1.745-2.037.648-6.091,3.145-7.052,1.316-.512,2.716.314,3.99.92s3.072.867,3.845-.314c.752-1.17-.167-2.737.156-4.085a3.224,3.224,0,0,1,3.072-2.152,13.559,13.559,0,0,1,3.938.742c2.455.637,5.224.794,7.365-.575s3.082-4.68,1.327-6.508c-1.473-1.546-3.938-1.379-5.986-1.985a2.45,2.45,0,0,1-.3-.1A61.2,61.2,0,0,1,125.193,65.813Z" fill="#6bb3d9"/><path d="M112.192,68.746a1.969,1.969,0,0,1-.324.105c.355-1.327.668-2.664.93-4.022.334-1.661.595-3.343.773-5.046.135.638.282,1.264.417,1.9C114.553,64.286,114.667,67.8,112.192,68.746Z" fill="#6bb3d9"/><path d="M125.187,65.811a60.743,60.743,0,0,1-1.159,11.857c-.042-.71-.063-1.421-.105-2.11a118.341,118.341,0,0,0-1.974-13.08c-.512-3.05-1.055-6.2-2.737-8.806a8.748,8.748,0,0,0-5.338-3.876A60.73,60.73,0,0,0,104,19.521,61,61,0,0,1,125.187,65.811Z" fill="#4fa4d1"/><path d="M51.605,5.869A61.272,61.272,0,0,0,5.879,46.632l.029.04a2.989,2.989,0,0,0,5.082-.532,56.56,56.56,0,0,1,6.276-9.693l7.208-9.591c1.808-2.4,3.761-4.92,6.571-6a15.924,15.924,0,0,0,3.448-1.306c1.024-.7,1.671-2.194.93-3.176,1.379,1.567,3.959,1.253,5.766.219,2.278-1.3,3.991-3,6.53-3.844,1.953-.658,4.116-.69,5.526-2.413C55.313,7.812,53.945,6.506,51.605,5.869Z" fill="#6bb3d9"/><path d="M8.256,48.855A3.876,3.876,0,0,1,5.1,47.263L4.8,46.848l.132-.528A62.275,62.275,0,0,1,51.4,4.889l.234-.048.231.063c1.808.492,2.908,1.312,3.268,2.439.346,1.08-.03,2.3-1.117,3.63a7.591,7.591,0,0,1-4.481,2.316c-.526.129-1.022.25-1.5.412a15.588,15.588,0,0,0-3.981,2.225c-.746.518-1.517,1.054-2.373,1.54a6.8,6.8,0,0,1-5.077.8,4.018,4.018,0,0,1-1.55,2.113,8.667,8.667,0,0,1-2.545,1.06c-.374.109-.75.219-1.113.356-2.621,1-4.483,3.479-6.126,5.662l-7.208,9.59A56.286,56.286,0,0,0,11.9,46.564a3.961,3.961,0,0,1-3.238,2.271A3.892,3.892,0,0,1,8.256,48.855ZM7.013,46.4a1.945,1.945,0,0,0,1.45.45,1.978,1.978,0,0,0,1.621-1.129,57.871,57.871,0,0,1,6.382-9.869l7.209-9.592c1.716-2.281,3.851-5.118,7.013-6.329.414-.157.838-.282,1.26-.406a7.091,7.091,0,0,0,1.982-.793,1.942,1.942,0,0,0,.8-1.2.656.656,0,0,0-.1-.549l1.548-1.265c.988,1.122,3.066.844,4.52.012.78-.443,1.513-.953,2.223-1.445A17.4,17.4,0,0,1,47.4,11.8c.555-.186,1.117-.324,1.659-.457a5.791,5.791,0,0,0,3.409-1.641c.6-.738.881-1.377.76-1.753S52.5,7.182,51.566,6.9A60.265,60.265,0,0,0,7.013,46.4Z" fill="#2f3a5a"/><path d="M56.684,112.827a4.157,4.157,0,0,1-1.431-.255c-2.6-.959-3.344-4.046-3.173-6.616.033-.47.084-.941.135-1.415.181-1.684.352-3.276-.279-4.595A8.5,8.5,0,0,0,50.1,97.691a16.97,16.97,0,0,1-1.442-1.548c-2.265-2.884-2.4-6.569-2.525-10.134-.018-.5-.036-1-.06-1.5-.133-2.7-.866-7.439-4.29-8.839a10.562,10.562,0,0,0-4.421-.406,18.854,18.854,0,0,1-3.445-.061,18.754,18.754,0,0,1-5.79-2.158c-2.215-1.126-4.284-2.317-5.246-4.5-.943-2.126-.435-4.546-.063-6.313.939-4.459,1.911-9.07,3.908-13.3a19.306,19.306,0,0,1,8.063-9.117c4.044-2.14,8.942-1.94,12.184.5a18.246,18.246,0,0,1,2.236,2.1,16.134,16.134,0,0,0,2,1.894c3.14,2.336,7.615,1.95,11.928,1.357a9.473,9.473,0,0,0,4.015-1.154,2.56,2.56,0,0,0,1.168-2.809c-.491-1.131-2.246-1.441-3.719-1.34-.267.018-.542.042-.819.067-1.636.145-3.488.308-5.082-.633-1.791-1.07-2.519-3.09-3.162-4.872s-1.2-3.313-2.536-3.79c-1.381-.484-2.9.421-4.511,1.378-.4.239-.8.476-1.2.689a6.405,6.405,0,0,1-5.6.279,3.054,3.054,0,0,1-1.685-2.43,3.19,3.19,0,0,1,.754-2.4,6.426,6.426,0,0,1,4.26-1.97c.3-.024.591-.042.89-.06,1.6-.094,3.1-.184,3.909-1.128a6.306,6.306,0,0,0,.971-2.912c.3-1.724.638-3.678,2.575-4.424,1.581-.611,3.128.144,4.372.752l.408.2c.964.459,2.2.628,2.578.042a2.57,2.57,0,0,0,.043-1.588,5.68,5.68,0,0,1-.022-2.183,4.2,4.2,0,0,1,3.989-2.917,10.919,10.919,0,0,1,3.5.57c.249.069.5.138.746.2,1.905.494,4.593.818,6.576-.451a4.089,4.089,0,0,0,1.756-2.87,2.539,2.539,0,0,0-.612-2.1,6.034,6.034,0,0,0-3.452-1.278,18.037,18.037,0,0,1-2.1-.441,3.609,3.609,0,0,1-.426-.15,1,1,0,0,1,.522-1.907,62.2,62.2,0,0,1,53.769,73.827,1,1,0,0,1-1.979-.137c-.021-.357-.037-.712-.053-1.066s-.031-.7-.051-1.042a77.356,77.356,0,0,0-1.364-9.635c-.206-1.116-.411-2.23-.6-3.339-.493-2.938-1-5.974-2.591-8.431-1.169-1.825-3.372-3.56-5.746-3.56h-.018q.975,4.506,1.962,9.006l.4,1.81c.926,4.273.045,7.265-2.416,8.21a3.884,3.884,0,0,1-3.3-.248,6.858,6.858,0,0,1-3.232-4.411,19.589,19.589,0,0,1-.4-3.346,13.143,13.143,0,0,0-.6-3.839c-1.538-4.079-6.711-5.416-11.569-6.186a6.1,6.1,0,0,0-3.62.154A1.752,1.752,0,0,0,89,53.1a.7.7,0,0,0,.209.647c.408.338,1.084.185,2.154-.109A4.976,4.976,0,0,1,95,53.582a2.918,2.918,0,0,1,1.585,2.242,4.68,4.68,0,0,1-1.321,3.9,11.317,11.317,0,0,1-2.844,1.844,10.238,10.238,0,0,0-2.965,2.006,8.8,8.8,0,0,1-2.691,1.852c-3.43,1.33-7.069-1.418-8.6-4.839A27.836,27.836,0,0,1,76.82,56.6a19.346,19.346,0,0,0-1.765-4.733A5.629,5.629,0,0,0,71.992,49.2a3,3,0,0,0-3.264.932c-.889,1.294-.32,3.219.427,5.107l3.51,8.815c.771,1.946,1.7,3.805,3.271,4.232,1.206.333,2.526-.239,3.923-.84.453-.195.9-.388,1.35-.554a6.325,6.325,0,0,1,4.87.114,3.228,3.228,0,0,1,1.69,2.09c.579,2.273-1.422,4.151-2.384,5.053a72.859,72.859,0,0,0-8.514,9.472c-1,1.33-2.065,2.882-2.056,4.491a8.784,8.784,0,0,0,.529,2.51,8.144,8.144,0,0,1,.531,3.929,8.376,8.376,0,0,1-2.687,4.185l-10.939,11C60.854,111.132,58.867,112.826,56.684,112.827ZM38.927,73.218a9.313,9.313,0,0,1,3.614.6c4.447,1.818,5.373,7.416,5.529,10.592.024.5.043,1.012.061,1.526.116,3.243.236,6.6,2.1,8.968a15.044,15.044,0,0,0,1.273,1.36,10.126,10.126,0,0,1,2.239,2.82c.875,1.827.665,3.781.462,5.669-.048.449-.1.9-.128,1.339-.117,1.759.3,4.023,1.866,4.6,1.263.46,2.816-.294,4.892-2.369l10.936-11a6.784,6.784,0,0,0,2.139-3.134,6.613,6.613,0,0,0-.474-2.98,10.352,10.352,0,0,1-.619-3.095c-.013-2.226,1.262-4.109,2.457-5.7a74.907,74.907,0,0,1,8.746-9.731c1.038-.973,2.066-2.1,1.813-3.1a1.245,1.245,0,0,0-.682-.814,4.386,4.386,0,0,0-3.248-.008c-.414.153-.831.333-1.251.514-1.577.678-3.363,1.445-5.24.932-2.419-.656-3.642-2.994-4.6-5.423L67.3,55.976c-.595-1.5-1.832-4.627-.219-6.975a4.98,4.98,0,0,1,5.49-1.717,7.59,7.59,0,0,1,4.208,3.562,21.112,21.112,0,0,1,1.971,5.214,25.915,25.915,0,0,0,1.234,3.711c1.129,2.516,3.769,4.683,6.061,3.793a7.172,7.172,0,0,0,2.075-1.477,15.9,15.9,0,0,1,1.351-1.12,15.686,15.686,0,0,1,2.038-1.176,9.641,9.641,0,0,0,2.362-1.5,2.667,2.667,0,0,0,.739-2.156.911.911,0,0,0-.5-.763,3.536,3.536,0,0,0-2.215.193c-1.213.332-2.722.746-3.956-.277a2.687,2.687,0,0,1-.927-2.382,3.735,3.735,0,0,1,1.873-2.862c1.61-.871,3.5-.58,4.879-.37C99.194,50.537,105,52.1,106.9,57.134a14.84,14.84,0,0,1,.724,4.424,17.945,17.945,0,0,0,.348,3.013,4.923,4.923,0,0,0,2.22,3.095,1.924,1.924,0,0,0,1.646.151c2.112-.812,1.439-4.736,1.182-5.919l-.4-1.809q-1.1-5.047-2.2-10.091a1,1,0,0,1,.765-1.187c3.675-.8,7.176,1.678,8.869,4.323,1.811,2.8,2.379,6.19,2.881,9.181.186,1.1.39,2.2.594,3.307.2,1.069.4,2.15.582,3.238q.076-1.521.076-3.047A60.172,60.172,0,0,0,78.871,7.467a4.74,4.74,0,0,1,.425,2.685,6.081,6.081,0,0,1-2.664,4.32c-2.08,1.329-4.822,1.565-8.156.7-.259-.066-.519-.139-.78-.212a9.237,9.237,0,0,0-2.861-.5,2.284,2.284,0,0,0-2.144,1.379,4.144,4.144,0,0,0,.055,1.437,4.119,4.119,0,0,1-.344,2.964c-1.074,1.637-3.342,1.517-5.115.675l-.428-.208c-1.031-.5-2-.978-2.771-.683-.84.324-1.051,1.313-1.327,2.9a7.793,7.793,0,0,1-1.42,3.869c-1.356,1.591-3.457,1.716-5.312,1.826-.284.017-.567.034-.842.056A4.455,4.455,0,0,0,42.3,29.93a1.184,1.184,0,0,0-.3.92,1.04,1.04,0,0,0,.625.866,4.487,4.487,0,0,0,3.721-.263c.373-.2.748-.426,1.128-.652,1.844-1.1,3.934-2.341,6.2-1.545,2.235.795,3.04,3.028,3.75,5,.581,1.61,1.129,3.13,2.3,3.831,1.036.612,2.418.491,3.883.361.29-.026.579-.051.863-.072,2.793-.178,4.919.774,5.688,2.543.859,2-.327,4.2-1.88,5.257a10.984,10.984,0,0,1-4.869,1.482c-4.721.651-9.646,1.051-13.392-1.735A17.754,17.754,0,0,1,47.755,43.8a16.491,16.491,0,0,0-1.984-1.881c-2.637-1.984-6.674-2.116-10.048-.334-3.654,1.932-5.926,5.528-7.189,8.2-1.9,4.018-2.845,8.512-3.76,12.858-.409,1.944-.7,3.671-.065,5.093.7,1.581,2.443,2.569,4.324,3.525a16.938,16.938,0,0,0,5.16,1.96,17.087,17.087,0,0,0,3.081.044C37.821,73.243,38.374,73.218,38.927,73.218Z" fill="#2f3a5a"/><path d="M22.21,1A17.453,17.453,0,0,0,4.757,18.453c0,9.639,17.453,34.27,17.453,34.27s17.453-24.631,17.453-34.27A17.453,17.453,0,0,0,22.21,1Z" fill="#ef5361"/><path d="M22.21,53.723A1,1,0,0,1,21.4,53.3c-.721-1.016-17.638-25-17.638-34.848a18.453,18.453,0,0,1,36.906,0c0,9.844-16.916,33.832-17.637,34.848A1,1,0,0,1,22.21,53.723ZM22.21,2A16.472,16.472,0,0,0,5.757,18.453c0,8.043,13.028,27.532,16.453,32.517C25.636,45.984,38.663,26.5,38.663,18.453A16.472,16.472,0,0,0,22.21,2Z" fill="#2f3a5a"/><circle cx="22.21" cy="18.159" r="11.531" transform="translate(-0.8 1.025) rotate(-2.597)" fill="#e1e6e9"/><path d="M22.21,30.69A12.532,12.532,0,1,1,34.741,18.159,12.545,12.545,0,0,1,22.21,30.69Zm0-23.063A10.532,10.532,0,1,0,32.741,18.159,10.544,10.544,0,0,0,22.21,7.627Z" fill="#2f3a5a"/></g></svg>
